<?xml version="1.0" encoding="utf-8"?>
<!-- Generator: Adobe Illustrator 24.2.1, SVG Export Plug-In . SVG Version: 6.00 Build 0)  -->
<svg version="1.1" id="Capa_1" xmlns="http://www.w3.org/2000/svg" xmlns:xlink="http://www.w3.org/1999/xlink" x="0px" y="0px"
	 width="101.3px" height="38.7px" viewBox="0 0 101.3 38.7" style="enable-background:new 0 0 101.3 38.7;" xml:space="preserve">
<style type="text/css">
	.st0{fill:#FFFFFF;}
</style>
<g>
	<g>
		<path class="st0" d="M45.8,17.7c1,0,1.8,0.3,2.3,0.8s0.8,1.3,0.8,2.2c0,1-0.3,1.7-0.8,2.2c-0.6,0.5-1.4,0.8-2.3,0.8h-1.9v-6.1h1.9
			V17.7z M44.6,23.2h1.1c0.8,0,1.4-0.2,1.8-0.6c0.4-0.4,0.6-1,0.6-1.8s-0.2-1.4-0.6-1.8c-0.4-0.4-1-0.6-1.8-0.6h-1.1V23.2z"/>
		<path class="st0" d="M53.4,17.7v0.6H51v2.1h2.2V21H51v2.2h2.4v0.6h-3.3v-6.1H53.4z"/>
		<path class="st0" d="M54.8,17.7h0.8v5.5h2.2v0.6h-3C54.8,23.8,54.8,17.7,54.8,17.7z"/>
		<path class="st0" d="M62.1,23c-0.6-0.6-0.9-1.3-0.9-2.2c0-0.9,0.3-1.6,0.9-2.2c0.6-0.6,1.3-0.9,2.2-0.9c0.6,0,1.2,0.1,1.7,0.4
			s0.9,0.7,1.1,1.3h-1c-0.4-0.7-1-1-1.8-1c-0.7,0-1.2,0.2-1.6,0.7c-0.4,0.4-0.7,1-0.7,1.8c0,0.7,0.2,1.3,0.7,1.8
			c0.4,0.4,1,0.7,1.6,0.7c0.4,0,0.7-0.1,1.1-0.3c0.3-0.2,0.6-0.4,0.7-0.8h1c-0.2,0.6-0.6,1-1.1,1.3S64.9,24,64.3,24
			C63.5,23.9,62.7,23.6,62.1,23z"/>
		<path class="st0" d="M68.6,17.7h0.8v5.5h2.2v0.6h-3V17.7z"/>
		<path class="st0" d="M72.5,23.8v-6.1h0.8v6.1H72.5z"/>
		<path class="st0" d="M78.1,17.7v0.6h-2.4v2.1h2.2V21h-2.2v2.2h2.4v0.6h-3.3v-6.1H78.1z"/>
		<path class="st0" d="M83.5,17.7h0.8v6.1h-0.8L80.3,19v4.8h-0.8v-6.1h0.8l3.2,4.8V17.7z"/>
		<path class="st0" d="M85.5,18.4v-0.7h4.1v0.7H88v5.5h-0.8v-5.5H85.5z"/>
		<path class="st0" d="M94,17.7v0.6h-2.4v2.1h2.2V21h-2.2v2.2H94v0.6h-3.3v-6.1H94z"/>
	</g>
	<g>
		<path class="st0" d="M46,9.4c1,0,1.8,0.3,2.4,0.9c0.6,0.6,1,1.3,1,2.2s-0.3,1.7-1,2.2c-0.6,0.6-1.5,0.9-2.4,0.9h-2.2V9.4H46z
			 M45.3,14.4H46c0.6,0,1-0.2,1.4-0.5c0.3-0.4,0.5-0.8,0.5-1.4c0-0.6-0.2-1.1-0.5-1.4c-0.3-0.4-0.8-0.5-1.4-0.5h-0.7V14.4z"/>
		<path class="st0" d="M53.9,9.3v1.1h-2.2v1.3h2v1.1h-2v1.5h2.2v1.1h-3.7V9.3H53.9z"/>
		<path class="st0" d="M55,15.5V9.4h4v1.1h-2.5v1.3h1.9V13h-1.9v2.6H55V15.5z"/>
		<path class="st0" d="M63.6,9.3v1.1h-2.2v1.3h2v1.1h-2v1.5h2.2v1.1h-3.7V9.3H63.6z"/>
		<path class="st0" d="M68.7,9.3h1.5v6.2h-1.5l-2.5-3.9v3.9h-1.5V9.3h1.5l2.5,3.9V9.3z"/>
		<path class="st0" d="M73.5,10.5c-0.2,0-0.4,0-0.5,0.1s-0.2,0.3-0.2,0.4c0,0.2,0,0.4,0.2,0.4c0.1,0.1,0.3,0.2,0.4,0.3
			s0.4,0.1,0.6,0.2c0.2,0,0.4,0.1,0.7,0.2c0.2,0.1,0.4,0.2,0.6,0.3s0.3,0.3,0.4,0.5s0.2,0.5,0.2,0.8c0,0.5-0.2,1-0.7,1.4
			c-0.4,0.4-1,0.6-1.7,0.6s-1.3-0.2-1.7-0.5c-0.4-0.4-0.7-0.8-0.7-1.4h1.6c0,0.5,0.3,0.7,0.7,0.7c0.2,0,0.4,0,0.5-0.2
			c0.1-0.1,0.2-0.3,0.2-0.4s0-0.3-0.2-0.4c-0.1-0.1-0.3-0.2-0.4-0.3s-0.4-0.1-0.6-0.2s-0.4-0.1-0.7-0.2c-0.2-0.1-0.4-0.2-0.6-0.3
			s-0.3-0.3-0.4-0.5S71,11.5,71,11.3c0-0.6,0.2-1.1,0.7-1.4c0.4-0.4,1-0.5,1.6-0.5s1.2,0.1,1.6,0.4c0.4,0.3,0.6,0.8,0.7,1.5H74
			c0-0.2-0.1-0.4-0.2-0.5C73.8,10.5,73.6,10.5,73.5,10.5z"/>
		<path class="st0" d="M77.4,14.7c-0.6-0.6-0.9-1.4-0.9-2.3s0.3-1.7,0.9-2.3s1.4-0.9,2.2-0.9s1.6,0.3,2.2,0.9
			c0.6,0.6,0.9,1.4,0.9,2.3s-0.3,1.7-0.9,2.3s-1.4,0.9-2.2,0.9C78.8,15.6,78,15.3,77.4,14.7z M80.9,13.7c0.3-0.3,0.4-0.7,0.4-1.3
			s-0.1-1-0.4-1.3s-0.7-0.5-1.2-0.5s-0.9,0.2-1.2,0.5S78,11.9,78,12.5c0,0.5,0.1,1,0.4,1.3s0.7,0.5,1.2,0.5S80.6,14,80.9,13.7z"/>
		<path class="st0" d="M85.1,13.2v2.4h-1.5V9.4h2.5c0.7,0,1.3,0.2,1.7,0.6c0.4,0.4,0.6,0.8,0.6,1.3c0,0.4-0.1,0.7-0.3,1.1
			c-0.2,0.4-0.6,0.6-1.1,0.7l1.5,2.5h-1.8l-1.4-2.4L85.1,13.2L85.1,13.2z M85.1,10.5V12H86c0.2,0,0.4-0.1,0.5-0.2
			c0.1-0.1,0.2-0.3,0.2-0.5s-0.1-0.4-0.2-0.5s-0.3-0.2-0.5-0.2C86,10.5,85.1,10.5,85.1,10.5z"/>
		<path class="st0" d="M89.3,15.5V9.4h1.5v6.2L89.3,15.5L89.3,15.5z"/>
		<path class="st0" d="M95.8,15.5l-0.4-1.1h-2.2l-0.4,1.1h-1.6l2.2-6.2h1.8l2.2,6.2H95.8z M93.7,13.4h1.5l-0.7-2.2L93.7,13.4z"/>
	</g>
	<g>
		<rect x="43.9" y="26.2" class="st0" width="0.5" height="6"/>
		<polygon class="st0" points="46.1,26.2 46.1,32.2 46.6,32.2 46.6,27.1 46.6,27 46.7,27.1 50.1,32.2 50.7,32.2 50.7,26.2 
			50.2,26.2 50.2,31.2 50.2,31.4 50.1,31.2 46.7,26.2 		"/>
		<polygon class="st0" points="57.3,26.2 55.2,30.9 55.2,31 55.1,30.9 52.9,26.2 52.4,26.2 51.4,32.2 51.9,32.2 52.8,27.5 
			52.9,27.4 52.9,27.5 55.2,32.2 57.4,27.6 57.5,27.4 57.5,27.6 58.4,32.2 59,32.2 57.9,26.2 		"/>
		<path class="st0" d="M62.8,26.1c-0.9,0-1.6,0.3-2.2,0.9c-0.6,0.6-0.9,1.3-0.9,2.2s0.3,1.6,0.9,2.2c0.6,0.6,1.3,0.9,2.2,0.9
			s1.6-0.3,2.2-0.9s0.9-1.3,0.9-2.2S65.5,27.6,65,27C64.4,26.4,63.7,26.1,62.8,26.1z M64.6,31.1c-0.5,0.5-1.1,0.7-1.8,0.7
			s-1.3-0.3-1.8-0.7c-0.5-0.5-0.7-1.1-0.7-1.9s0.2-1.4,0.7-1.9s1.1-0.7,1.8-0.7s1.3,0.2,1.8,0.7s0.7,1.1,0.7,1.9
			C65.3,29.9,65.1,30.6,64.6,31.1z"/>
		<path class="st0" d="M70,29.1h-0.2H70c0.7-0.3,1.1-0.7,1.1-1.4c0-0.5-0.2-0.8-0.5-1.1c-0.3-0.3-0.8-0.4-1.4-0.4h-2v6h2.1
			c0.6,0,1.1-0.2,1.4-0.4c0.4-0.3,0.5-0.7,0.5-1.1s-0.1-0.7-0.4-1C70.7,29.3,70.4,29.2,70,29.1z M67.8,28.8v-2.2l0,0l0,0h1.5
			c0.4,0,0.7,0.1,1,0.3c0.2,0.2,0.4,0.5,0.4,0.8s-0.1,0.6-0.4,0.8c-0.2,0.2-0.6,0.3-1,0.3L67.8,28.8L67.8,28.8L67.8,28.8z
			 M70.4,31.4c-0.3,0.2-0.6,0.3-1.1,0.3h-1.5l0,0l0,0v-2.4l0,0l0,0h1.5c0.4,0,0.8,0.1,1.1,0.3c0.3,0.2,0.4,0.5,0.4,0.9
			C70.8,30.9,70.6,31.2,70.4,31.4z"/>
		<rect x="72.8" y="26.2" class="st0" width="0.5" height="6"/>
		<polygon class="st0" points="75.6,31.8 75.6,26.2 75.1,26.2 75.1,32.2 77.8,32.2 77.8,31.8 		"/>
		<rect x="79" y="26.2" class="st0" width="0.5" height="6"/>
		<path class="st0" d="M83.3,26.2l-2.2,6h0.5l0.5-1.4l0,0l0,0H85l0,0l0,0l0.5,1.4H86l-2.2-6C83.9,26.2,83.3,26.2,83.3,26.2z
			 M84.9,30.3L84.9,30.3h-2.5l0,0l0,0l1.2-3.4v-0.1v0.1L84.9,30.3L84.9,30.3z"/>
		<path class="st0" d="M89.8,29.6c0.5-0.1,0.9-0.3,1.2-0.6c0.3-0.3,0.4-0.7,0.4-1.2s-0.2-0.9-0.5-1.2c-0.4-0.3-0.9-0.5-1.5-0.5h-1.8
			v6h0.5v-2.5l0,0l0,0h1l0,0l0,0l1.6,2.6h0.7L89.8,29.6L89.8,29.6L89.8,29.6z M88.2,29.2L88.2,29.2L88.2,29.2v-2.6l0,0l0,0h1.2
			c1,0,1.5,0.4,1.5,1.3s-0.5,1.3-1.5,1.3L88.2,29.2L88.2,29.2z"/>
		<rect x="93.2" y="26.2" class="st0" width="0.5" height="6"/>
		<path class="st0" d="M100.4,27c-0.6-0.6-1.3-0.9-2.2-0.9c-0.9,0-1.6,0.3-2.2,0.9s-0.9,1.3-0.9,2.2s0.3,1.6,0.9,2.2
			c0.6,0.6,1.3,0.9,2.2,0.9c0.9,0,1.6-0.3,2.2-0.9s0.9-1.3,0.9-2.2S101,27.5,100.4,27z M100,31.1c-0.5,0.5-1.1,0.7-1.8,0.7
			c-0.7,0-1.3-0.3-1.8-0.7c-0.5-0.5-0.7-1.1-0.7-1.9s0.2-1.4,0.7-1.9s1.1-0.7,1.8-0.7c0.7,0,1.3,0.2,1.8,0.7s0.7,1.1,0.7,1.9
			S100.5,30.6,100,31.1z"/>
	</g>
	<g>
		<path class="st0" d="M0,0v33.4c0,2.9,2.4,5.3,5.3,5.3h33.4V0H0z M36.8,36.8H6.7c-2.6,0-4.8-2.2-4.8-4.8V1.9h23.3
			c6.4,0,11.6,5.2,11.6,11.6V36.8z"/>
		<path class="st0" d="M9.7,14.5H5.1V27h4.7c4,0,6.5-2.6,6.5-6.2C16.3,17.1,13.7,14.5,9.7,14.5z M9.5,24.4H8.1v-7.3h1.5
			c2.3,0,3.7,1.4,3.7,3.7S11.8,24.4,9.5,24.4z"/>
		<path class="st0" d="M23.7,17.2c1,0,1.8,0.4,2.4,1.2v-0.1l2.8-1.2c-1.1-1.7-2.9-2.7-5.2-2.7c-3.7,0-6.3,2.6-6.3,6.3S20,27,23.7,27
			c2.2,0,4.1-1,5.2-2.6L26,23.2c-0.5,0.7-1.3,1-2.2,1c-1.8,0-3.1-1.4-3.1-3.6C20.5,18.5,21.8,17.2,23.7,17.2z"/>
		<polygon class="st0" points="30.7,16.5 30.7,25.2 30.7,27 33.6,27 33.6,26.5 33.6,15.7 33.6,14.5 30.7,14.5 		"/>
	</g>
</g>
</svg>
